<svg xmlns="http://www.w3.org/2000/svg" data-name="Layer 1" width="281.94894" height="320.08746" viewBox="0 0 281.94894 320.08746" xmlns:xlink="http://www.w3.org/1999/xlink"><path d="M611.82408,309.87193l-1.13867,4.06079c-24.41846-.20264-47.10107,20.85767-48.708,45.22388-1.5581,23.626,14.07032,45.41308,14.731,69.081.43018,15.395-5.521,30.22412-12.28955,44.05786s-14.53076,27.39917-18.17822,42.36182c-3.64746,14.96289-2.562,32.01294,7.0708,44.02978,9.63232,12.01685,29.28564,16.283,40.87793,6.1438,8.85254-7.74243,10.6372-20.61792,11.7207-32.32861A1697.3536,1697.3536,0,0,0,611.82408,309.87193Z" transform="translate(-459.02553 -289.95627)" fill="#1a1919"/><path d="M736.98887,309.54587c-47.26512-5.59631-93.88849-16.63483-141.44553-19.52693-45.73554-.87879-91.03077,7.714-136.51781,11.35759,43.67639,8.79541,88.23819,9.32135,132.57442,11.265q6.65875.389,13.32717.77655c-5.49227,39.84428-10.01226,79.9627-9.83856,120.2325.50785,48.46207,6.052,96.76339,12.87722,144.69921.68035,8.21609,2.9506-19.172,3.62733-22.66209,2.4138-21.36171,4.19068-42.79941,5.13762-64.27662,2.58268-59.47977-3.52721-119.04972-11.31385-177.96465,38.353,2.21114,76.85316,3.957,115.08794-.70448q10.25594-1.144,20.46965-2.64993C739.64513,309.91228,738.3182,309.7238,736.98887,309.54587Z" transform="translate(-459.02553 -289.95627)"/><path d="M707.14267,570.5158c-26.05118.64567-25.98363,38.81169,0,39.52793C733.19506,609.39806,733.12751,571.23234,707.14267,570.5158Z" transform="translate(-459.02553 -289.95627)"/></svg>